<svg width="24" height="24" viewBox="0 0 24 24" fill="none" xmlns="http://www.w3.org/2000/svg">
<path d="M3.50005 7.99995C3.50025 7.05187 3.74552 6.11993 4.21207 5.29458C4.67862 4.46923 5.35059 3.7785 6.16279 3.28942C6.97498 2.80033 7.89982 2.5295 8.84754 2.50321C9.79526 2.47692 10.7337 2.69607 11.5717 3.13937C12.4098 3.58268 13.119 4.23509 13.6306 5.03331C14.1422 5.83152 14.4388 6.74843 14.4915 7.69505C14.5443 8.64166 14.3514 9.58584 13.9317 10.436C13.512 11.2861 12.8797 12.0133 12.096 12.547C13.7836 13.1659 15.2472 14.2757 16.2987 15.7335C17.3502 17.1913 17.9413 18.9304 17.996 20.727C17.9937 20.9207 17.9166 21.106 17.7809 21.2442C17.6451 21.3824 17.4613 21.4628 17.2676 21.4686C17.074 21.4744 16.8856 21.4052 16.7418 21.2753C16.598 21.1455 16.51 20.9652 16.496 20.772C16.4365 18.8234 15.6206 16.9746 14.2212 15.6174C12.8219 14.2601 10.949 13.5011 8.99955 13.5011C7.0501 13.5011 5.17724 14.2601 3.77788 15.6174C2.37851 16.9746 1.5626 18.8234 1.50305 20.772C1.49304 20.9678 1.40673 21.1519 1.26261 21.2849C1.11849 21.4178 0.928028 21.4891 0.732023 21.4833C0.536018 21.4776 0.350062 21.3953 0.213991 21.2541C0.0779204 21.1129 0.00255842 20.924 0.00405005 20.728C0.0586014 18.9312 0.649657 17.1919 1.70114 15.7339C2.75262 14.2759 4.21639 13.166 5.90405 12.547C5.16288 12.0426 4.55634 11.3646 4.13732 10.572C3.7183 9.77947 3.49952 8.89645 3.50005 7.99995ZM9.00005 3.99995C7.93918 3.99995 6.92177 4.42138 6.17162 5.17153C5.42148 5.92167 5.00005 6.93909 5.00005 7.99995C5.00005 9.06082 5.42148 10.0782 6.17162 10.8284C6.92177 11.5785 7.93918 12 9.00005 12C10.0609 12 11.0783 11.5785 11.8285 10.8284C12.5786 10.0782 13 9.06082 13 7.99995C13 6.93909 12.5786 5.92167 11.8285 5.17153C11.0783 4.42138 10.0609 3.99995 9.00005 3.99995ZM17.2901 7.99995C17.1421 7.99995 16.9981 8.00995 16.8561 8.02995C16.7569 8.0477 16.6552 8.04531 16.557 8.0229C16.4588 8.00049 16.3661 7.95854 16.2845 7.89954C16.2029 7.84054 16.134 7.7657 16.0819 7.67949C16.0298 7.59328 15.9956 7.49747 15.9814 7.39776C15.9672 7.29805 15.9731 7.1965 15.999 7.09916C16.0248 7.00181 16.07 6.91068 16.1319 6.83118C16.1937 6.75168 16.271 6.68546 16.3589 6.63645C16.4469 6.58745 16.5439 6.55667 16.644 6.54595C17.6386 6.40216 18.6528 6.59315 19.5269 7.08888C20.401 7.5846 21.0855 8.35692 21.4727 9.28428C21.8598 10.2116 21.9275 11.2414 21.6653 12.2115C21.403 13.1816 20.8257 14.0369 20.024 14.643C21.2024 15.1706 22.203 16.028 22.9049 17.1116C23.6069 18.1952 23.9803 19.4588 23.98 20.75C23.98 20.9489 23.901 21.1396 23.7604 21.2803C23.6197 21.4209 23.429 21.5 23.23 21.5C23.0311 21.5 22.8404 21.4209 22.6997 21.2803C22.5591 21.1396 22.48 20.9489 22.48 20.75C22.4799 19.6341 22.1204 18.548 21.4547 17.6524C20.789 16.7569 19.8525 16.0996 18.784 15.778L18.25 15.618V13.942L18.66 13.733C19.2678 13.4251 19.7541 12.9214 20.0404 12.3032C20.3266 11.685 20.3962 10.9883 20.2379 10.3257C20.0795 9.66309 19.7025 9.07316 19.1676 8.65118C18.6328 8.22919 17.9713 7.99977 17.2901 7.99995Z" fill="#1D1D1D"/>
</svg>
