<svg id="svg" xmlns="http://www.w3.org/2000/svg" xmlns:xlink="http://www.w3.org/1999/xlink" width="400" height="400" viewBox="0, 0, 400,400"><g id="svgg"><path id="path0" d="M200.520 1.911 C 191.266 5.716,185.191 11.853,181.807 20.812 C 179.774 26.197,178.640 119.783,180.479 130.426 C 183.530 148.082,196.740 157.673,218.164 157.788 L 222.656 157.813 222.656 175.820 C 222.656 195.643,222.993 197.359,227.318 199.596 C 233.230 202.653,233.182 202.684,260.859 177.842 L 283.045 157.927 312.421 157.628 C 336.919 157.379,342.429 157.118,345.602 156.056 C 354.554 153.062,362.386 145.388,365.849 136.219 C 368.566 129.026,368.566 28.005,365.849 20.812 C 362.466 11.853,356.390 5.716,347.137 1.911 L 342.578 0.037 273.828 0.037 L 205.078 0.037 200.520 1.911 M341.992 18.845 C 344.054 19.843,346.250 21.762,347.512 23.670 L 349.609 26.838 349.821 77.591 C 350.063 135.321,350.323 132.851,343.519 137.356 L 340.352 139.453 308.652 139.844 C 286.206 140.120,276.497 140.505,275.391 141.162 C 274.531 141.673,266.445 148.731,257.422 156.847 L 241.016 171.603 240.619 158.653 C 240.048 140.048,240.409 140.395,221.033 139.844 C 196.176 139.137,197.656 143.014,197.656 78.634 C 197.656 24.590,197.543 26.065,202.039 21.571 C 206.540 17.073,203.596 17.251,273.777 17.218 C 338.237 17.188,338.587 17.196,341.992 18.845 M90.738 143.713 C 45.004 154.943,28.652 213.774,61.996 247.118 C 69.444 254.566,84.251 263.063,90.234 263.323 C 91.094 263.360,88.281 264.208,83.984 265.207 C 42.637 274.822,13.564 302.954,2.657 343.902 C 0.586 351.675,0.501 352.782,0.188 375.977 L -0.136 400.000 106.182 400.000 L 212.500 400.000 212.500 382.782 C 212.500 363.166,211.646 353.578,208.952 342.969 C 198.808 303.012,166.362 272.475,125.862 264.765 L 120.865 263.814 125.882 262.124 C 169.160 247.549,181.927 191.799,149.360 159.601 C 134.464 144.874,111.432 138.632,90.738 143.713 M120.096 161.732 C 150.984 172.396,160.116 211.672,137.066 234.722 C 112.478 259.310,70.062 246.656,62.839 212.578 C 55.872 179.713,88.431 150.799,120.096 161.732 M119.940 281.618 C 163.732 288.721,192.749 323.163,194.957 370.661 L 195.522 382.813 106.355 382.813 L 17.188 382.813 17.188 372.368 C 17.188 315.049,65.109 272.725,119.940 281.618 " stroke="none" fill="#000000" fill-rule="evenodd"></path></g></svg>