<svg id="svg" xmlns="http://www.w3.org/2000/svg" xmlns:xlink="http://www.w3.org/1999/xlink" width="400" height="400" viewBox="0, 0, 400,400"><g id="svgg"><path id="path0" d="M94.092 10.840 C 82.219 13.925,75.930 22.687,75.191 37.175 L 74.776 45.312 50.420 45.313 C 23.235 45.313,20.237 45.729,15.737 50.128 C 10.043 55.695,10.547 39.448,10.547 217.578 L 10.547 377.734 12.716 381.425 C 14.123 383.817,16.183 385.877,18.575 387.284 L 22.266 389.453 77.328 389.669 C 140.561 389.917,138.628 390.149,137.612 382.422 C 137.026 377.970,139.112 378.125,79.956 378.125 L 25.710 378.125 23.793 376.207 L 21.875 374.290 21.875 256.286 L 21.875 138.281 200.000 138.281 L 378.125 138.281 378.125 256.286 L 378.125 374.290 376.207 376.207 L 374.290 378.125 324.645 378.125 C 268.760 378.125,271.875 377.782,271.875 383.928 C 271.875 390.183,269.317 389.916,326.891 389.670 L 377.734 389.453 381.425 387.284 C 383.817 385.877,385.877 383.817,387.284 381.425 L 389.453 377.734 389.453 217.578 C 389.453 39.448,389.957 55.695,384.263 50.128 C 379.763 45.729,376.765 45.313,349.580 45.313 L 325.224 45.313 324.809 37.175 C 323.931 19.969,315.170 10.576,300.000 10.576 C 284.830 10.576,276.069 19.969,275.191 37.175 L 274.776 45.313 200.000 45.313 L 125.224 45.312 124.809 37.175 C 123.851 18.408,110.156 6.666,94.092 10.840 M104.441 22.708 C 107.569 23.893,110.136 26.463,111.805 30.078 C 113.976 34.782,113.972 68.326,111.800 73.108 C 107.103 83.450,92.897 83.450,88.200 73.108 C 86.202 68.708,85.987 35.294,87.928 30.650 C 90.910 23.513,97.809 20.195,104.441 22.708 M304.441 22.708 C 307.569 23.893,310.136 26.463,311.805 30.078 C 313.976 34.782,313.972 68.326,311.800 73.108 C 307.103 83.450,292.897 83.450,288.200 73.108 C 286.202 68.708,285.987 35.294,287.928 30.650 C 290.910 23.513,297.809 20.195,304.441 22.708 M75.186 65.620 C 75.982 82.426,85.192 92.344,100.000 92.344 C 115.538 92.344,125.000 81.182,125.000 62.852 L 125.000 57.031 199.889 57.031 L 274.779 57.031 275.186 65.620 C 275.982 82.426,285.192 92.344,300.000 92.344 C 315.538 92.344,325.000 81.182,325.000 62.852 L 325.000 57.031 349.645 57.031 L 374.290 57.031 376.207 58.949 L 378.125 60.866 378.125 93.714 L 378.125 126.563 200.000 126.563 L 21.875 126.563 21.875 93.714 L 21.875 60.866 23.793 58.949 L 25.710 57.031 50.244 57.031 L 74.779 57.031 75.186 65.620 M135.325 160.903 C 129.451 163.614,128.941 165.771,128.941 187.891 C 128.941 217.198,128.361 216.641,158.427 216.260 C 186.754 215.901,185.547 217.164,185.547 187.891 C 185.547 158.577,186.786 159.860,158.203 159.562 C 140.147 159.373,138.419 159.474,135.325 160.903 M221.484 160.552 C 214.648 162.976,213.892 166.008,214.207 189.724 C 214.569 216.946,213.478 215.888,241.573 216.254 C 271.637 216.645,271.059 217.201,271.059 187.891 C 271.059 158.839,271.612 159.400,242.969 159.426 C 229.143 159.439,223.838 159.717,221.484 160.552 M307.340 160.195 C 300.247 162.324,299.609 164.674,299.609 188.672 C 299.609 217.278,298.293 216.016,328.125 216.016 C 357.449 216.016,356.250 217.214,356.250 187.891 C 356.250 158.761,357.269 159.830,329.297 159.616 C 318.555 159.534,308.674 159.795,307.340 160.195 M174.219 187.891 L 174.219 204.688 157.422 204.688 L 140.625 204.688 140.625 187.891 L 140.625 171.094 157.422 171.094 L 174.219 171.094 174.219 187.891 M259.375 187.891 L 259.375 204.688 242.578 204.688 L 225.781 204.688 225.781 187.891 L 225.781 171.094 242.578 171.094 L 259.375 171.094 259.375 187.891 M344.531 187.891 L 344.531 204.688 327.734 204.688 L 310.938 204.688 310.938 187.891 L 310.938 171.094 327.734 171.094 L 344.531 171.094 344.531 187.891 M51.953 230.260 C 44.640 232.091,43.750 235.144,43.750 258.386 C 43.750 287.389,42.667 286.328,72.266 286.328 C 90.786 286.328,92.793 286.198,95.011 284.855 C 100.198 281.715,100.391 280.759,100.391 258.203 C 100.391 228.806,101.215 229.638,72.214 229.778 C 61.930 229.828,52.812 230.045,51.953 230.260 M305.834 231.222 C 299.814 234.252,299.609 235.138,299.609 258.203 C 299.609 280.759,299.802 281.715,304.989 284.855 C 307.207 286.198,309.214 286.328,327.734 286.328 C 357.333 286.328,356.250 287.389,356.250 258.386 C 356.250 228.974,357.400 230.173,328.906 229.858 C 310.199 229.651,308.792 229.734,305.834 231.222 M172.136 241.057 C 170.918 241.591,165.548 246.443,160.201 251.840 L 150.481 261.652 146.792 258.201 C 140.544 252.356,135.082 253.041,134.518 259.740 C 134.147 264.137,145.688 275.781,150.416 275.781 C 154.569 275.781,180.469 250.493,180.469 246.438 C 180.469 241.626,176.574 239.111,172.136 241.057 M257.293 241.057 C 256.075 241.591,250.693 246.454,245.333 251.864 L 235.588 261.701 232.442 258.630 C 225.908 252.251,219.531 253.244,219.531 260.641 C 219.531 264.412,231.617 275.781,235.626 275.781 C 239.798 275.781,265.625 250.497,265.625 246.412 C 265.625 241.625,261.720 239.115,257.293 241.057 M89.063 258.203 L 89.063 275.000 72.266 275.000 L 55.469 275.000 55.469 258.203 L 55.469 241.406 72.266 241.406 L 89.063 241.406 89.063 258.203 M344.531 258.203 L 344.531 275.000 327.734 275.000 L 310.938 275.000 310.938 258.203 L 310.938 241.406 327.734 241.406 L 344.531 241.406 344.531 258.203 M50.056 301.368 C 44.261 304.323,44.166 304.727,43.923 327.595 C 43.600 357.844,42.420 356.641,72.404 356.641 C 101.626 356.641,100.391 357.876,100.391 328.654 C 100.391 298.999,101.394 299.999,71.664 300.001 C 55.186 300.002,52.387 300.179,50.056 301.368 M135.327 301.299 C 129.571 304.136,129.326 305.135,129.051 326.903 C 128.663 357.622,127.727 356.641,157.422 356.641 C 175.942 356.641,177.949 356.511,180.168 355.168 C 185.354 352.028,185.547 351.071,185.547 328.516 C 185.547 298.890,186.634 299.991,157.434 300.018 C 141.034 300.033,137.478 300.239,135.327 301.299 M220.300 301.456 C 214.724 304.437,214.453 305.691,214.453 328.516 C 214.453 351.071,214.646 352.028,219.832 355.168 C 222.051 356.511,224.058 356.641,242.578 356.641 C 272.196 356.641,271.323 357.547,270.948 327.191 C 270.598 298.918,271.732 300.000,242.448 300.000 C 224.993 300.000,222.746 300.148,220.300 301.456 M89.063 328.516 L 89.063 345.313 72.266 345.313 L 55.469 345.313 55.469 328.516 L 55.469 311.719 72.266 311.719 L 89.063 311.719 89.063 328.516 M174.219 328.516 L 174.219 345.313 157.422 345.313 L 140.625 345.313 140.625 328.516 L 140.625 311.719 157.422 311.719 L 174.219 311.719 174.219 328.516 M259.375 328.516 L 259.375 345.313 242.578 345.313 L 225.781 345.313 225.781 328.516 L 225.781 311.719 242.578 311.719 L 259.375 311.719 259.375 328.516 M165.682 380.183 C 160.784 386.410,164.934 389.844,177.360 389.844 C 189.495 389.844,191.371 388.988,191.394 383.443 C 191.414 378.767,189.752 378.125,177.617 378.125 C 167.403 378.125,167.285 378.145,165.682 380.183 M219.588 380.183 C 214.629 386.488,218.817 389.844,231.641 389.844 C 244.396 389.844,249.543 385.497,243.504 379.824 C 240.464 376.968,221.898 377.247,219.588 380.183 " stroke="none" fill="#000000" fill-rule="evenodd"></path></g></svg>