<?xml version="1.0" standalone="no"?>
<!DOCTYPE svg PUBLIC "-//W3C//DTD SVG 20010904//EN"
 "http://www.w3.org/TR/2001/REC-SVG-20010904/DTD/svg10.dtd">
<svg version="1.0" xmlns="http://www.w3.org/2000/svg"
 width="512.000000pt" height="512.000000pt" viewBox="0 0 512.000000 512.000000"
 preserveAspectRatio="xMidYMid meet">

<g transform="translate(0.000000,512.000000) scale(0.100000,-0.100000)"
fill="#000000" stroke="none">
<path d="M2346 4629 c-814 -86 -1506 -643 -1760 -1419 -171 -521 -132 -1074
109 -1565 419 -855 1358 -1313 2291 -1120 619 129 1156 546 1439 1120 393 795
235 1750 -395 2385 -433 437 -1071 664 -1684 599z m399 -319 c531 -61 1001
-350 1289 -792 446 -685 360 -1589 -207 -2176 -154 -158 -293 -261 -483 -355
-795 -397 -1756 -139 -2252 604 -343 513 -384 1194 -108 1749 95 191 196 328
353 481 288 281 654 450 1063 492 78 8 260 6 345 -3z"/>
<path d="M2495 3506 c-101 -44 -125 -178 -46 -257 112 -113 296 -12 267 146
-18 94 -131 151 -221 111z"/>
<path d="M2495 3026 c-41 -18 -83 -69 -90 -109 -3 -18 -5 -298 -3 -624 3 -580
3 -592 24 -619 39 -53 71 -69 134 -69 63 0 95 16 134 69 21 27 21 37 21 646 0
609 0 619 -21 646 -11 15 -32 37 -46 47 -33 25 -113 32 -153 13z"/>
</g>
</svg>
