<?xml version="1.0" standalone="no"?>
<!DOCTYPE svg PUBLIC "-//W3C//DTD SVG 20010904//EN"
 "http://www.w3.org/TR/2001/REC-SVG-20010904/DTD/svg10.dtd">
<svg version="1.0" xmlns="http://www.w3.org/2000/svg"
 width="256.000000pt" height="256.000000pt" viewBox="0 0 256.000000 256.000000"
 preserveAspectRatio="xMidYMid meet">

<g transform="translate(0.000000,256.000000) scale(0.100000,-0.100000)"
fill="#000000" stroke="none">
<path d="M2220 2485 l0 -45 101 0 101 0 -106 -114 -106 -114 0 -51 0 -51 161
0 160 0 -3 43 -3 42 -104 3 -104 3 107 108 107 109 -3 54 -3 53 -152 3 -153 3
0 -46z"/>
<path d="M1042 2349 c-434 -56 -812 -369 -952 -789 -95 -282 -72 -619 61 -882
111 -219 308 -416 527 -527 194 -98 454 -141 667 -111 261 37 473 142 661 325
246 241 370 559 350 895 -40 675 -645 1176 -1314 1089z m294 -90 c634 -88
1056 -707 900 -1321 -53 -211 -130 -344 -290 -503 -159 -158 -317 -245 -534
-293 -101 -22 -338 -22 -437 0 -420 95 -737 412 -833 833 -22 96 -22 344 0
440 44 192 135 367 263 503 189 201 386 302 675 346 54 8 182 5 256 -5z"/>
<path d="M1510 1935 l0 -45 101 0 101 0 -106 -114 -106 -114 0 -51 0 -51 161
0 160 0 -3 43 -3 42 -97 3 c-54 1 -98 6 -98 10 0 4 45 52 100 107 l101 100 -3
55 -3 55 -152 3 -153 3 0 -46z"/>
<path d="M580 1313 c0 -35 34 -110 63 -142 54 -59 162 -85 250 -60 74 20 146
106 161 192 l7 37 -44 0 c-41 0 -45 -3 -52 -27 -34 -137 -204 -168 -275 -51
-11 18 -20 43 -20 56 0 19 -5 22 -45 22 -42 0 -45 -2 -45 -27z"/>
<path d="M1335 1303 c15 -84 86 -168 160 -193 60 -20 146 -9 201 26 56 34 103
103 111 163 l6 41 -47 0 c-41 0 -46 -2 -46 -22 0 -33 -35 -85 -72 -109 -25
-15 -45 -19 -84 -16 -69 5 -109 35 -131 98 -18 49 -18 49 -61 49 l-44 0 7 -37z"/>
<path d="M1096 908 c-62 -37 -96 -86 -108 -159 -21 -123 22 -223 115 -270 32
-17 54 -20 103 -17 83 5 133 38 169 112 24 49 27 65 23 133 -4 95 -28 146 -87
188 -34 24 -54 30 -109 33 -55 2 -74 -1 -106 -20z m162 -84 c34 -24 52 -68 52
-129 0 -95 -40 -145 -116 -145 -81 0 -132 73 -121 172 10 80 48 117 122 118
22 0 51 -7 63 -16z"/>
</g>
</svg>
