<svg width="24" height="24" viewBox="0 0 24 24" fill="none" xmlns="http://www.w3.org/2000/svg">
<path d="M20.2409 15.7745L19.1349 13.9285C18.7159 13.2295 18.4949 12.4295 18.4949 11.6165V8.9895C18.4949 5.4105 15.5809 2.49951 11.9999 2.49951C8.4189 2.49951 5.50489 5.4105 5.50489 8.9895V11.6165C5.50489 12.4305 5.28389 13.2295 4.86489 13.9285L3.75888 15.7745C3.42088 16.3375 3.4129 17.0145 3.7369 17.5865C4.0609 18.1585 4.64688 18.5005 5.30388 18.5005H9.56688C9.53288 18.6655 9.50089 18.8315 9.50089 19.0005C9.50089 20.3785 10.6229 21.5005 12.0009 21.5005C13.3789 21.5005 14.5009 20.3785 14.5009 19.0005C14.5009 18.8315 14.4689 18.6655 14.4349 18.5005H18.6979C19.3559 18.5005 19.9419 18.1595 20.2659 17.5865C20.5869 17.0145 20.5789 16.3375 20.2409 15.7745ZM13.4989 18.9995C13.4989 19.8265 12.8259 20.4995 11.9989 20.4995C11.1719 20.4995 10.4989 19.8265 10.4989 18.9995C10.4989 18.8275 10.5389 18.6605 10.5959 18.4995H13.4019C13.4589 18.6605 13.4989 18.8265 13.4989 18.9995ZM19.3929 17.0935C19.2489 17.3475 18.9879 17.4995 18.6959 17.4995H5.30188C5.00988 17.4995 4.74889 17.3475 4.60489 17.0935C4.46089 16.8395 4.46489 16.5395 4.61489 16.2895L5.72089 14.4435C6.23289 13.5895 6.50389 12.6125 6.50389 11.6175V8.99051C6.50389 5.96351 8.96889 3.50052 11.9989 3.50052C15.0289 3.50052 17.4939 5.96351 17.4939 8.99051V11.6175C17.4939 12.6125 17.7649 13.5895 18.2769 14.4435L19.3829 16.2895C19.5329 16.5385 19.5369 16.8395 19.3929 17.0935Z" fill="#1D1D1D"/>
</svg>
