<?xml version="1.0" standalone="no"?>
<!DOCTYPE svg PUBLIC "-//W3C//DTD SVG 20010904//EN"
 "http://www.w3.org/TR/2001/REC-SVG-20010904/DTD/svg10.dtd">
<svg version="1.0" xmlns="http://www.w3.org/2000/svg"
 width="256.000000pt" height="256.000000pt" viewBox="0 0 256.000000 256.000000"
 preserveAspectRatio="xMidYMid meet">

<g transform="translate(0.000000,256.000000) scale(0.100000,-0.100000)"
fill="#000000" stroke="none">
<path d="M1247 2547 c-15 -11 -17 -29 -15 -151 3 -155 10 -170 65 -150 l28 9
3 140 c2 123 0 141 -15 152 -9 7 -24 13 -33 13 -9 0 -24 -6 -33 -13z"/>
<path d="M377 2182 c-10 -10 -17 -27 -17 -38 0 -21 162 -187 193 -198 25 -8
69 36 61 61 -4 10 -45 57 -93 106 -89 91 -114 102 -144 69z"/>
<path d="M2039 2113 c-48 -49 -89 -96 -93 -106 -8 -25 36 -69 61 -61 33 12
193 177 193 200 0 25 -29 54 -56 54 -11 0 -56 -37 -105 -87z"/>
<path d="M1135 2129 c-191 -37 -338 -120 -476 -267 -82 -87 -151 -207 -189
-327 -34 -107 -39 -310 -11 -428 62 -261 228 -463 473 -576 121 -56 211 -75
348 -75 137 0 227 19 348 75 245 113 411 315 473 576 28 118 23 321 -11 428
-44 138 -107 243 -209 348 -109 113 -244 193 -391 232 -77 20 -283 28 -355 14z
m370 -133 c246 -83 427 -279 489 -530 25 -98 23 -259 -4 -356 -60 -213 -193
-376 -385 -470 -284 -140 -607 -90 -834 130 -149 145 -221 313 -222 520 -1
121 17 209 61 306 96 211 288 368 515 420 99 23 282 13 380 -20z"/>
<path d="M8 1305 c-8 -19 -8 -31 0 -50 l12 -26 142 3 143 3 9 28 c20 55 5 62
-153 65 l-141 3 -12 -26z"/>
<path d="M2252 1318 c-7 -7 -12 -24 -12 -38 0 -46 14 -50 162 -50 138 0 138 0
150 25 8 19 8 31 0 50 -12 25 -12 25 -150 25 -94 0 -142 -4 -150 -12z"/>
<path d="M550 613 c-30 -10 -190 -177 -190 -199 0 -25 29 -54 56 -54 20 0 188
162 197 190 2 8 0 23 -5 32 -11 22 -39 37 -58 31z"/>
<path d="M1965 595 c-16 -15 -23 -30 -19 -42 12 -33 177 -193 200 -193 25 0
54 29 54 56 0 21 -162 187 -193 198 -12 4 -27 -3 -42 -19z"/>
<path d="M1242 308 c-8 -8 -12 -56 -12 -150 0 -138 0 -138 25 -150 19 -8 31
-8 50 0 25 12 25 12 25 150 0 148 -4 162 -50 162 -14 0 -31 -5 -38 -12z"/>
</g>
</svg>
