<?xml version="1.0" standalone="no"?>
<!DOCTYPE svg PUBLIC "-//W3C//DTD SVG 20010904//EN"
 "http://www.w3.org/TR/2001/REC-SVG-20010904/DTD/svg10.dtd">
<svg version="1.0" xmlns="http://www.w3.org/2000/svg"
 width="512.000000pt" height="512.000000pt" viewBox="0 0 512.000000 512.000000"
 preserveAspectRatio="xMidYMid meet">

<g transform="translate(0.000000,512.000000) scale(0.100000,-0.100000)"
fill="#000000" stroke="none">
<path d="M2395 4740 c-1022 -78 -1845 -850 -2001 -1875 -22 -149 -22 -460 0
-610 144 -951 858 -1685 1801 -1850 685 -120 1410 110 1904 604 384 385 604
868 641 1413 61 877 -429 1717 -1225 2103 -346 168 -742 244 -1120 215z m309
-320 c253 -21 466 -81 695 -197 197 -99 308 -180 476 -348 168 -167 249 -279
348 -475 156 -310 223 -638 197 -972 -24 -314 -116 -596 -283 -863 -116 -187
-313 -395 -498 -527 -119 -85 -362 -208 -500 -252 -602 -195 -1259 -73 -1754
325 -102 82 -268 259 -348 370 -87 122 -204 355 -250 500 -124 384 -124 774 0
1158 46 145 163 378 250 500 80 111 246 288 348 370 290 233 654 381 1012 410
144 12 168 12 307 1z"/>
<path d="M2047 3349 c-106 -25 -201 -104 -251 -209 l-31 -65 0 -515 0 -515 32
-67 c39 -82 99 -142 183 -182 l65 -31 494 -3 c549 -3 557 -2 656 63 60 41 97
86 133 163 l27 57 0 515 0 515 -31 65 c-40 84 -100 144 -182 183 l-67 32 -495
2 c-272 1 -512 -3 -533 -8z"/>
</g>
</svg>
