<svg width="153" height="34" viewBox="0 0 153 34" fill="none" xmlns="http://www.w3.org/2000/svg">
<path fill-rule="evenodd" clip-rule="evenodd" d="M49.0265 0.700953C49.4617 0.574997 49.9255 0.507202 50.4172 0.507202C50.923 0.507202 51.3885 0.509473 51.8187 0.516884C51.9503 0.519151 52.0551 0.628484 52.0529 0.761087C52.0506 0.893689 51.9421 0.999347 51.8105 0.99708C51.3842 0.989736 50.9218 0.987468 50.4172 0.987468C49.9695 0.987468 49.55 1.04912 49.158 1.16256C49.0315 1.19917 48.8995 1.12551 48.8632 0.998045C48.8269 0.870576 48.9 0.737564 49.0265 0.700953ZM54.3604 0.93436C54.386 0.804263 54.5113 0.719679 54.6404 0.745435C55.6895 0.954714 56.4599 1.34444 57.2128 2.05291C57.3089 2.14342 57.3141 2.29538 57.2243 2.39231C57.1345 2.48924 56.9837 2.49444 56.8875 2.40392C56.2027 1.75953 55.5141 1.4093 54.5479 1.21656C54.4188 1.1908 54.3348 1.06446 54.3604 0.93436ZM47.0054 2.16886C47.1004 2.26066 47.1036 2.41267 47.0125 2.50839C46.431 3.11942 45.9602 3.87424 45.6041 4.69362C45.5513 4.8151 45.4108 4.87045 45.2902 4.81725C45.1697 4.76404 45.1147 4.62243 45.1675 4.50095C45.5417 3.64013 46.0412 2.83511 46.6685 2.17596C46.7596 2.08025 46.9104 2.07707 47.0054 2.16886ZM58.6783 4.20525C58.7859 4.12881 58.9346 4.1547 59.0104 4.26307C59.2577 4.61628 59.5206 5.00277 59.805 5.42514C60.1537 5.94294 60.5075 6.58666 60.8336 7.29619C60.8889 7.41653 60.8369 7.55927 60.7174 7.61499C60.598 7.67072 60.4564 7.61833 60.4011 7.49798C60.0833 6.80651 59.7417 6.18651 59.4106 5.69481C59.1268 5.27329 58.8657 4.88959 58.621 4.53989C58.5451 4.43152 58.5708 4.2817 58.6783 4.20525ZM44.6887 6.95252C44.8189 6.97164 44.9091 7.09352 44.8901 7.22476C44.8253 7.67335 44.7929 8.11467 44.7929 8.53663C44.7929 9.07559 44.8194 9.58126 44.8709 10.0583C44.8852 10.1901 44.7907 10.3086 44.6598 10.323C44.529 10.3373 44.4114 10.2421 44.3971 10.1102C44.3436 9.61452 44.3163 9.09143 44.3163 8.53663C44.3163 8.09025 44.3505 7.62578 44.4185 7.15553C44.4375 7.02429 44.5584 6.9334 44.6887 6.95252ZM61.8494 11.1544C61.9792 11.1322 62.1022 11.2202 62.1243 11.3509C62.2529 12.1136 62.3002 12.8535 62.2277 13.5109C62.1586 14.1371 62.0307 14.8433 61.8613 15.5805C61.8317 15.7097 61.7037 15.7902 61.5754 15.7603C61.4472 15.7304 61.3673 15.6014 61.397 15.4722C61.5635 14.7475 61.6875 14.0605 61.754 13.4578C61.8201 12.8587 61.7784 12.1661 61.6544 11.4314C61.6324 11.3007 61.7197 11.1767 61.8494 11.1544ZM45.3031 12.8511C45.4236 12.7979 45.5642 12.8534 45.6169 12.9749C46.0194 13.9021 46.5628 14.7244 47.2328 15.5116C47.3185 15.6123 47.307 15.7639 47.2071 15.8502C47.1072 15.9365 46.9567 15.9249 46.8711 15.8243C46.1766 15.0083 45.6052 14.1462 45.1802 13.1673C45.1275 13.0458 45.1825 12.9042 45.3031 12.8511ZM6.33737 14.9198C6.46642 14.8938 6.59197 14.9782 6.61778 15.1082C6.69263 15.4853 6.87622 15.9078 7.15403 16.3611C7.22319 16.474 7.18847 16.6219 7.07649 16.6916C6.96451 16.7613 6.81767 16.7263 6.74852 16.6135C6.45325 16.1317 6.24021 15.6548 6.15043 15.2024C6.12461 15.0724 6.20831 14.9459 6.33737 14.9198ZM49.0629 17.6789C49.1493 17.5789 49.2998 17.5684 49.3991 17.6555C49.7703 17.9812 50.1606 18.3115 50.569 18.6518C50.8886 18.9182 51.2031 19.1837 51.5137 19.4472C51.6144 19.5326 51.6272 19.6841 51.5425 19.7855C51.4577 19.887 51.3074 19.9 51.2067 19.8146C50.8967 19.5515 50.5834 19.287 50.2653 19.0219C49.8552 18.6803 49.4616 18.3471 49.0861 18.0177C48.9869 17.9306 48.9764 17.7789 49.0629 17.6789ZM8.63482 18.5487C8.72647 18.4535 8.87734 18.4512 8.97179 18.5436C9.6373 19.1943 10.388 19.8304 11.1534 20.4079C11.2587 20.4874 11.2802 20.6379 11.2013 20.7441C11.1224 20.8502 10.9731 20.8719 10.8677 20.7924C10.0883 20.2043 9.32182 19.555 8.63989 18.8883C8.54543 18.7959 8.54316 18.6439 8.63482 18.5487ZM60.5092 19.27C60.6322 19.3171 60.694 19.4559 60.6472 19.5798C60.38 20.2871 60.0991 20.9455 59.8209 21.5062C59.7088 21.7321 59.6031 21.9506 59.5037 22.1557C59.4019 22.3662 59.3067 22.5627 59.2184 22.739C59.1591 22.8574 59.0158 22.905 58.8983 22.8452C58.7808 22.7855 58.7336 22.641 58.7929 22.5226C58.8842 22.3404 58.9749 22.1528 59.0732 21.9496C59.1704 21.7487 59.275 21.5326 59.3947 21.2914C59.6641 20.7484 59.9387 20.1053 60.2017 19.4089C60.2486 19.285 60.3862 19.2228 60.5092 19.27ZM53.0572 21.0706C53.1412 20.9685 53.2914 20.9543 53.3927 21.039C54.0312 21.5723 54.6645 22.0866 55.3064 22.5725C55.4116 22.6521 55.4329 22.8027 55.3538 22.9087C55.2748 23.0147 55.1254 23.0361 55.0201 22.9565C54.3698 22.4641 53.7301 21.9445 53.0886 21.4087C52.9872 21.3241 52.9732 21.1727 53.0572 21.0706ZM13.2203 22.0819C13.2846 21.9662 13.4298 21.9248 13.5446 21.9895C14.0022 22.2472 14.4316 22.4599 14.8147 22.6172L14.8411 22.628L14.8642 22.6448C15.1936 22.8843 15.5386 23.1025 15.8964 23.3033C16.0114 23.3678 16.0527 23.5141 15.9887 23.6299C15.9246 23.7458 15.7795 23.7874 15.6645 23.7229C15.3005 23.5186 14.9474 23.296 14.6085 23.0511C14.21 22.8858 13.7719 22.6677 13.3121 22.4087C13.1972 22.344 13.1561 22.1977 13.2203 22.0819ZM56.9848 24.0396C57.0538 23.9267 57.2006 23.8915 57.3126 23.9611C57.9987 24.3868 58.7073 24.7724 59.4524 25.1076C59.5726 25.1616 59.6265 25.3036 59.5728 25.4247C59.5192 25.5458 59.3783 25.6002 59.2581 25.5461C58.6527 25.2737 58.0719 24.9696 57.509 24.6394C57.5336 24.7384 57.4931 24.8462 57.4021 24.9024C57.0593 25.1138 56.6491 25.3149 56.1441 25.5222C55.7631 25.6786 55.3788 25.8466 54.9908 26.0215C54.8706 26.0757 54.7297 26.0214 54.6759 25.9004C54.6222 25.7793 54.676 25.6373 54.7962 25.5831C55.1872 25.4068 55.5768 25.2365 55.9643 25.0774C56.4542 24.8763 56.8393 24.6864 57.1533 24.4927C57.1738 24.4801 57.1954 24.471 57.2175 24.4652C57.1658 24.4336 57.1142 24.4019 57.0627 24.37C56.9507 24.3005 56.9158 24.1525 56.9848 24.0396ZM17.8359 24.4602C17.8813 24.3357 18.0182 24.2718 18.1418 24.3175C18.9125 24.6025 19.7071 24.8491 20.5062 25.0869C20.6324 25.1245 20.7045 25.2581 20.6672 25.3853C20.6299 25.5125 20.4973 25.5851 20.3711 25.5475C19.5697 25.3089 18.7632 25.0588 17.9776 24.7684C17.854 24.7227 17.7906 24.5848 17.8359 24.4602ZM22.6076 25.9647C22.6473 25.8383 22.7812 25.7682 22.9067 25.8082C23.311 25.9372 23.7102 26.0718 24.1007 26.2161C24.5473 26.3811 24.9946 26.5366 25.4425 26.6828C25.5677 26.7237 25.6363 26.8591 25.5958 26.9853C25.5552 27.1114 25.4208 27.1806 25.2956 27.1397C24.842 26.9916 24.389 26.8342 23.9366 26.667C23.5546 26.5259 23.1624 26.3936 22.7629 26.2661C22.6374 26.2261 22.5679 26.0911 22.6076 25.9647ZM61.4354 26.0976C61.4701 25.9697 61.6012 25.8944 61.7281 25.9293C62.1099 26.0345 62.5026 26.127 62.9075 26.2058C63.3036 26.2828 63.702 26.3721 64.1022 26.4711C64.23 26.5027 64.3082 26.6327 64.2768 26.7615C64.2454 26.8903 64.1164 26.9691 63.9886 26.9375C63.595 26.8402 63.2044 26.7526 62.8172 26.6773C62.4004 26.5963 61.9959 26.501 61.6024 26.3926C61.4755 26.3576 61.4007 26.2256 61.4354 26.0976ZM52.8125 26.7623C52.8667 26.8832 52.8133 27.0254 52.6933 27.08C51.9227 27.4305 51.1389 27.7707 50.3442 28.0636C50.2206 28.1092 50.0837 28.0451 50.0385 27.9206C49.9933 27.796 50.0569 27.6581 50.1805 27.6126C50.9592 27.3256 51.7309 26.9909 52.4973 26.6423C52.6172 26.5877 52.7584 26.6415 52.8125 26.7623ZM66.1506 27.295C66.1895 27.1683 66.323 27.0974 66.4487 27.1366C67.1552 27.3568 67.8662 27.5914 68.5777 27.8261L68.7596 27.8861C68.8847 27.9274 68.9529 28.063 68.912 28.189C68.8711 28.3151 68.7365 28.3838 68.6114 28.3426L68.4299 28.2827C67.7178 28.0478 67.0104 27.8144 66.3079 27.5954C66.1821 27.5562 66.1117 27.4217 66.1506 27.295ZM27.886 27.6389C27.9172 27.51 28.0461 27.4311 28.174 27.4625C29.0977 27.6896 30.0247 27.8818 30.9551 28.0428C31.0848 28.0652 31.1719 28.1894 31.1496 28.3201C31.1274 28.4508 31.0042 28.5385 30.8745 28.5161C29.9337 28.3534 28.9959 28.1589 28.061 27.9291C27.9331 27.8976 27.8548 27.7677 27.886 27.6389ZM113.61 27.8082C113.65 27.9343 113.582 28.0698 113.456 28.1108C112.969 28.2701 112.478 28.4258 111.982 28.5777C111.856 28.6162 111.723 28.5446 111.684 28.4177C111.646 28.2908 111.717 28.1567 111.843 28.1182C112.336 27.9672 112.825 27.8124 113.309 27.654C113.434 27.613 113.569 27.6821 113.61 27.8082ZM48.0694 28.492C48.0943 28.6223 48.0098 28.7482 47.8805 28.7733C47.4575 28.8556 47.0311 28.9154 46.6016 28.9475C46.1245 28.9831 45.6485 29.016 45.1735 29.0457C45.0421 29.0539 44.929 28.9533 44.9208 28.8209C44.9127 28.6886 45.0125 28.5746 45.1439 28.5664C45.6169 28.5367 46.091 28.504 46.5664 28.4685C46.9756 28.438 47.3835 28.3809 47.7902 28.3018C47.9194 28.2766 48.0444 28.3618 48.0694 28.492ZM33.5074 28.6498C33.5215 28.5179 33.639 28.4225 33.7699 28.4367C34.7108 28.5388 35.6557 28.613 36.6047 28.663C36.7362 28.67 36.8371 28.7829 36.8303 28.9154C36.8234 29.0478 36.7113 29.1496 36.5798 29.1426C35.6227 29.0922 34.6691 29.0173 33.7189 28.9142C33.588 28.9 33.4933 28.7816 33.5074 28.6498ZM70.7669 28.7864C70.8051 28.6595 70.9382 28.5878 71.0641 28.6263C71.8413 28.8639 72.6164 29.0832 73.3873 29.2671C73.5153 29.2977 73.5946 29.427 73.5642 29.5561C73.5339 29.6852 73.4055 29.765 73.2774 29.7344C72.494 29.5475 71.7089 29.3253 70.9258 29.0859C70.7998 29.0474 70.7287 28.9133 70.7669 28.7864ZM42.543 28.9361C42.5472 29.0686 42.4441 29.1796 42.3125 29.1839C41.3534 29.2151 40.3982 29.2298 39.4467 29.2243C39.3151 29.2236 39.209 29.1155 39.2098 28.9829C39.2105 28.8502 39.3178 28.7433 39.4494 28.7441C40.3942 28.7495 41.3433 28.7349 42.2971 28.7038C42.4286 28.6996 42.5387 28.8035 42.543 28.9361ZM109.174 29.1344C109.207 29.2627 109.131 29.394 109.004 29.4277C108.014 29.6902 107.011 29.9363 105.998 30.1642C105.869 30.1931 105.742 30.1116 105.713 29.9822C105.684 29.8528 105.765 29.7244 105.894 29.6955C106.901 29.4689 107.898 29.2242 108.883 28.9633C109.01 28.9295 109.14 29.0061 109.174 29.1344ZM75.4786 29.9124C75.4945 29.7808 75.6134 29.6871 75.744 29.7031C76.1426 29.7521 76.5389 29.7864 76.9326 29.8036L76.9604 29.8049L76.9871 29.8125C77.4771 29.952 77.9715 30.0823 78.4699 30.2037C78.5979 30.2348 78.6765 30.3646 78.6456 30.4935C78.6147 30.6224 78.4859 30.7017 78.358 30.6705C77.8628 30.5499 77.3714 30.4206 76.8841 30.2822C76.4861 30.264 76.0867 30.229 75.6863 30.1798C75.5557 30.1638 75.4627 30.0441 75.4786 29.9124ZM103.157 30.5058C103.18 30.6363 103.095 30.7614 102.965 30.7853C101.953 30.9721 100.934 31.1398 99.9106 31.2867C99.7803 31.3054 99.6596 31.2141 99.6411 31.0828C99.6225 30.9515 99.7131 30.8299 99.8434 30.8113C100.861 30.6653 101.874 30.4986 102.879 30.3129C103.009 30.289 103.133 30.3754 103.157 30.5058ZM81.2018 31.0184C81.2236 30.8876 81.3465 30.7994 81.4763 30.8214C82.4789 30.9911 83.4939 31.1284 84.5183 31.235C84.6492 31.2486 84.7444 31.3666 84.7308 31.4985C84.7173 31.6304 84.6002 31.7263 84.4693 31.7127C83.4354 31.6051 82.4104 31.4665 81.3973 31.295C81.2675 31.273 81.18 31.1492 81.2018 31.0184ZM97.0515 31.3994C97.0645 31.5314 96.969 31.6491 96.838 31.6622C95.8104 31.7657 94.7807 31.8468 93.7515 31.9039C93.6201 31.9111 93.5077 31.8097 93.5005 31.6773C93.4932 31.5449 93.5939 31.4316 93.7253 31.4243C94.7472 31.3676 95.7698 31.2871 96.7906 31.1844C96.9216 31.1712 97.0384 31.2675 97.0515 31.3994ZM87.3321 31.6917C87.3381 31.5593 87.4495 31.4567 87.581 31.4628C88.5997 31.5094 89.6247 31.5283 90.6533 31.5211C90.7849 31.5202 90.8923 31.627 90.8932 31.7596C90.8941 31.8922 90.7882 32.0005 90.6566 32.0014C89.6201 32.0086 88.5867 31.9896 87.5594 31.9425C87.4279 31.9365 87.3261 31.8242 87.3321 31.6917Z" fill="#1EBCEF"/>
<path d="M110.767 31.6822L111.608 28.5567C111.608 28.5567 120.3 22.8525 120.398 22.7195L124.082 17.7452L117.998 20.4138L108.982 26.7916L110.767 31.6822Z" fill="#F8AB57"/>
<path d="M104.535 23.0271L124.084 17.7438L108.982 26.7915L104.535 23.0271Z" fill="#FED586"/>
<path d="M111.608 28.5567L116.31 32.5812L124.084 17.7438L111.608 28.5567Z" fill="#FED586"/>
<path d="M13.4518 5.67098C11.9419 4.81034 10.371 4.28781 8.73911 4.10339V17.7967H5.76507V4.10339C4.11791 4.28781 2.53937 4.81034 1.02948 5.67098L0 3.3657C1.06761 2.72023 2.21147 2.23612 3.43159 1.91338C4.66696 1.59064 5.93283 1.42927 7.22921 1.42927C8.52559 1.42927 9.79146 1.59064 11.0268 1.91338C12.2622 2.23612 13.4137 2.72023 14.4813 3.3657L13.4518 5.67098Z" fill="#1C1C1D"/>
<path d="M16.4126 5.48656H19.2723V17.7967H16.4126V5.48656ZM17.8539 3.45791C17.3354 3.45791 16.9007 3.29654 16.5499 2.97381C16.1991 2.6357 16.0237 2.22075 16.0237 1.72896C16.0237 1.23716 16.1991 0.829899 16.5499 0.50716C16.9007 0.169053 17.3354 0 17.8539 0C18.3725 0 18.8071 0.161369 19.1579 0.484107C19.5087 0.791478 19.6841 1.18338 19.6841 1.6598C19.6841 2.16696 19.5087 2.59728 19.1579 2.95075C18.8224 3.28886 18.3877 3.45791 17.8539 3.45791Z" fill="#1C1C1D"/>
<path d="M38.9024 5.34824C40.4428 5.34824 41.6629 5.80161 42.5628 6.70835C43.4626 7.59973 43.9125 8.94447 43.9125 10.7426V17.7967H41.0529V11.1114C41.0529 10.0356 40.8165 9.22879 40.3437 8.69089C39.8709 8.13763 39.1922 7.86099 38.3076 7.86099C37.3468 7.86099 36.5766 8.18373 35.997 8.82921C35.4174 9.45932 35.1277 10.3661 35.1277 11.5494V17.7967H32.268V11.1114C32.268 10.0356 32.0316 9.22879 31.5588 8.69089C31.086 8.13763 30.4073 7.86099 29.5227 7.86099C28.5466 7.86099 27.7688 8.17605 27.1893 8.80615C26.6249 9.43626 26.3428 10.3507 26.3428 11.5494V17.7967H23.4831V5.48656H26.2055V7.05415C26.6631 6.50088 27.235 6.07824 27.9213 5.78624C28.6076 5.49424 29.3702 5.34824 30.209 5.34824C31.1241 5.34824 31.9325 5.52498 32.634 5.87845C33.3509 6.21656 33.9152 6.72372 34.327 7.39994C34.8303 6.75446 35.4784 6.25498 36.2715 5.90151C37.0646 5.53266 37.9416 5.34824 38.9024 5.34824Z" fill="#1C1C1D"/>
<path d="M53.9469 15.5145C55.2738 15.5145 56.3795 15.0688 57.2641 14.1774L58.774 15.9525C58.2402 16.6134 57.5539 17.1128 56.715 17.4509C55.8762 17.789 54.9306 17.9581 53.8782 17.9581C52.5361 17.9581 51.3541 17.6892 50.3323 17.1513C49.3104 16.6134 48.5173 15.868 47.953 14.9151C47.404 13.9469 47.1295 12.8558 47.1295 11.6416C47.1295 10.4429 47.3964 9.36711 47.9302 8.41426C48.4792 7.44604 49.2265 6.69299 50.1721 6.15509C51.133 5.61719 52.2158 5.34824 53.4207 5.34824C54.5646 5.34824 55.6017 5.60182 56.532 6.10898C57.4776 6.60077 58.2249 7.31541 58.774 8.25289C59.323 9.175 59.5976 10.2585 59.5976 11.5033L50.2408 13.3475C50.5305 14.0545 50.9957 14.5924 51.6363 14.9612C52.2768 15.3301 53.047 15.5145 53.9469 15.5145ZM53.4207 7.65352C52.3684 7.65352 51.5143 7.99931 50.8585 8.69089C50.2179 9.38247 49.8976 10.3123 49.8976 11.4803V11.5033L56.8065 10.1663C56.6083 9.41321 56.2041 8.80616 55.594 8.3451C54.9992 7.88404 54.2748 7.65352 53.4207 7.65352Z" fill="#1C1C1D"/>
<path d="M74.1954 5.67098C72.6855 4.81034 71.1146 4.28781 69.4827 4.10339V17.7967H66.5086V4.10339C64.8615 4.28781 63.2829 4.81034 61.773 5.67098L60.7436 3.3657C61.8112 2.72023 62.955 2.23612 64.1751 1.91338C65.4105 1.59064 66.6764 1.42927 67.9728 1.42927C69.2692 1.42927 70.535 1.59064 71.7704 1.91338C73.0058 2.23612 74.1573 2.72023 75.2249 3.3657L74.1954 5.67098Z" fill="#1C1C1D"/>
<path d="M79.8786 7.28467C80.7022 5.99372 82.1511 5.34824 84.2253 5.34824V8.09152C83.9813 8.04541 83.7601 8.02236 83.5618 8.02236C82.4485 8.02236 81.5791 8.35279 80.9538 9.01363C80.3285 9.65911 80.0159 10.5966 80.0159 11.8261V17.7967H77.1562V5.48656H79.8786V7.28467Z" fill="#1C1C1D"/>
<path d="M98.9389 5.48656V17.7967H96.2165V16.2061C95.7437 16.7901 95.1565 17.2281 94.455 17.5201C93.7687 17.8121 93.0061 17.9581 92.1673 17.9581C90.9776 17.9581 89.91 17.6968 88.9644 17.1743C88.0341 16.6518 87.302 15.9141 86.7682 14.9612C86.2497 14.0084 85.9904 12.9019 85.9904 11.6416C85.9904 10.3814 86.2497 9.28258 86.7682 8.3451C87.302 7.39225 88.0341 6.65456 88.9644 6.13203C89.91 5.60951 90.9776 5.34824 92.1673 5.34824C92.9603 5.34824 93.6848 5.48656 94.3406 5.76319C95.0117 6.03982 95.5912 6.44709 96.0793 6.98499V5.48656H98.9389ZM92.4875 15.4915C93.5399 15.4915 94.4092 15.138 95.0955 14.431C95.7819 13.7241 96.125 12.7943 96.125 11.6416C96.125 10.489 95.7819 9.55921 95.0955 8.85226C94.4092 8.14531 93.5399 7.79183 92.4875 7.79183C91.4352 7.79183 90.5658 8.14531 89.8795 8.85226C89.2085 9.55921 88.8729 10.489 88.8729 11.6416C88.8729 12.7943 89.2085 13.7241 89.8795 14.431C90.5658 15.138 91.4352 15.4915 92.4875 15.4915Z" fill="#1C1C1D"/>
<path d="M108.743 17.9581C107.477 17.9581 106.341 17.6892 105.334 17.1513C104.328 16.6134 103.542 15.868 102.978 14.9151C102.414 13.9469 102.131 12.8558 102.131 11.6416C102.131 10.4275 102.414 9.34405 102.978 8.39121C103.542 7.43836 104.32 6.69299 105.311 6.15509C106.318 5.61719 107.462 5.34824 108.743 5.34824C109.948 5.34824 111 5.59414 111.9 6.08593C112.815 6.57772 113.501 7.28467 113.959 8.20678L111.763 9.49774C111.412 8.9291 110.97 8.50647 110.436 8.22984C109.917 7.93783 109.345 7.79183 108.72 7.79183C107.652 7.79183 106.768 8.14531 106.066 8.85226C105.365 9.54384 105.014 10.4736 105.014 11.6416C105.014 12.8097 105.357 13.7471 106.043 14.4541C106.745 15.1457 107.637 15.4915 108.72 15.4915C109.345 15.4915 109.917 15.3531 110.436 15.0765C110.97 14.7845 111.412 14.3542 111.763 13.7856L113.959 15.0765C113.486 15.9986 112.792 16.7133 111.877 17.2204C110.977 17.7122 109.933 17.9581 108.743 17.9581Z" fill="#1C1C1D"/>
<path d="M121.764 12.5176L119.636 14.5463V17.7967H116.777V0.691582H119.636V11.0192L125.562 5.48656H128.993L123.892 10.6504L129.474 17.7967H125.996L121.764 12.5176Z" fill="#1C1C1D"/>
<path d="M137.075 15.5145C138.402 15.5145 139.508 15.0688 140.393 14.1774L141.902 15.9525C141.369 16.6134 140.682 17.1128 139.843 17.4509C139.005 17.789 138.059 17.9581 137.007 17.9581C135.665 17.9581 134.483 17.6892 133.461 17.1513C132.439 16.6134 131.646 15.868 131.081 14.9151C130.532 13.9469 130.258 12.8558 130.258 11.6416C130.258 10.4429 130.525 9.36711 131.059 8.41426C131.608 7.44604 132.355 6.69299 133.301 6.15509C134.261 5.61719 135.344 5.34824 136.549 5.34824C137.693 5.34824 138.73 5.60182 139.66 6.10898C140.606 6.60077 141.353 7.31541 141.902 8.25289C142.451 9.175 142.726 10.2585 142.726 11.5033L133.369 13.3475C133.659 14.0545 134.124 14.5924 134.765 14.9612C135.405 15.3301 136.175 15.5145 137.075 15.5145ZM136.549 7.65352C135.497 7.65352 134.643 7.99931 133.987 8.69089C133.346 9.38247 133.026 10.3123 133.026 11.4803V11.5033L139.935 10.1663C139.737 9.41321 139.333 8.80616 138.722 8.3451C138.128 7.88404 137.403 7.65352 136.549 7.65352Z" fill="#1C1C1D"/>
<path d="M148.653 7.28467C149.477 5.99372 150.926 5.34824 153 5.34824V8.09152C152.756 8.04541 152.535 8.02236 152.337 8.02236C151.223 8.02236 150.354 8.35279 149.729 9.01363C149.103 9.65911 148.791 10.5966 148.791 11.8261V17.7967H145.931V5.48656H148.653V7.28467Z" fill="#1C1C1D"/>
</svg>
