<svg width="172" height="53" viewBox="0 0 172 53" fill="none" xmlns="http://www.w3.org/2000/svg">
<path fill-rule="evenodd" clip-rule="evenodd" d="M56.5986 10.2471C57.0692 10.1138 57.5708 10.042 58.1025 10.042C58.6495 10.042 59.1529 10.0444 59.6182 10.0522C59.7605 10.0546 59.8739 10.1704 59.8714 10.3108C59.869 10.4511 59.7517 10.563 59.6093 10.5606C59.1484 10.5528 58.6483 10.5504 58.1025 10.5504C57.6184 10.5504 57.1647 10.6157 56.7409 10.7358C56.6041 10.7745 56.4613 10.6966 56.422 10.5616C56.3828 10.4267 56.4618 10.2859 56.5986 10.2471ZM62.3668 10.4942C62.3945 10.3565 62.5301 10.2669 62.6697 10.2942C63.8041 10.5158 64.6372 10.9283 65.4514 11.6784C65.5555 11.7742 65.561 11.935 65.4639 12.0377C65.3668 12.1403 65.2037 12.1458 65.0997 12.05C64.3591 11.3678 63.6144 10.997 62.5696 10.793C62.43 10.7657 62.3392 10.6319 62.3668 10.4942ZM54.413 11.8011C54.5157 11.8983 54.5191 12.0592 54.4206 12.1605C53.7918 12.8074 53.2827 13.6065 52.8976 14.474C52.8405 14.6026 52.6885 14.6612 52.5581 14.6048C52.4278 14.5485 52.3684 14.3986 52.4255 14.27C52.8301 13.3587 53.3702 12.5064 54.0486 11.8086C54.1472 11.7073 54.3103 11.7039 54.413 11.8011ZM67.0363 13.9569C67.1527 13.876 67.3134 13.9034 67.3955 14.0181C67.6629 14.3921 67.9472 14.8012 68.2547 15.2484C68.6318 15.7965 69.0145 16.478 69.367 17.2292C69.4269 17.3566 69.3706 17.5077 69.2415 17.5667C69.1123 17.6257 68.9591 17.5702 68.8993 17.4428C68.5557 16.7108 68.1863 16.0544 67.8282 15.5339C67.5213 15.0876 67.239 14.6814 66.9743 14.3112C66.8923 14.1965 66.92 14.0379 67.0363 13.9569ZM51.9076 16.8653C52.0485 16.8856 52.146 17.0146 52.1255 17.1535C52.0553 17.6284 52.0204 18.0956 52.0204 18.5424C52.0204 19.1129 52.049 19.6483 52.1047 20.1532C52.1201 20.2928 52.0179 20.4183 51.8764 20.4335C51.7349 20.4486 51.6077 20.3478 51.5923 20.2082C51.5344 19.6835 51.505 19.1297 51.505 18.5424C51.505 18.0698 51.5419 17.5781 51.6154 17.0802C51.636 16.9413 51.7668 16.8451 51.9076 16.8653ZM70.4656 21.3137C70.606 21.2902 70.739 21.3833 70.7629 21.5217C70.902 22.3291 70.9531 23.1124 70.8747 23.8083C70.8 24.4713 70.6616 25.2189 70.4785 25.9994C70.4464 26.1361 70.308 26.2214 70.1693 26.1897C70.0307 26.158 69.9443 26.0215 69.9764 25.8847C70.1564 25.1175 70.2906 24.3902 70.3624 23.7522C70.4339 23.1179 70.3888 22.3847 70.2548 21.6069C70.2309 21.4685 70.3253 21.3372 70.4656 21.3137ZM52.572 23.1099C52.7024 23.0536 52.8544 23.1123 52.9114 23.2409C53.3467 24.2226 53.9344 25.0931 54.6589 25.9264C54.7516 26.033 54.7391 26.1935 54.6311 26.2849C54.5231 26.3763 54.3604 26.364 54.2677 26.2574C53.5166 25.3936 52.8987 24.4809 52.4392 23.4447C52.3822 23.316 52.4416 23.1661 52.572 23.1099ZM10.4337 25.2999C10.5732 25.2724 10.709 25.3617 10.7369 25.4994C10.8178 25.8986 11.0164 26.3459 11.3168 26.8258C11.3916 26.9452 11.3541 27.1019 11.233 27.1756C11.1119 27.2494 10.9531 27.2124 10.8783 27.0929C10.559 26.5829 10.3286 26.078 10.2315 25.5991C10.2036 25.4614 10.2941 25.3275 10.4337 25.2999ZM56.638 28.2208C56.7314 28.1149 56.8942 28.1038 57.0016 28.196C57.403 28.5408 57.8251 28.8905 58.2668 29.2508C58.6124 29.5328 58.9525 29.8139 59.2883 30.0928C59.3972 30.1833 59.4111 30.3436 59.3195 30.451C59.2278 30.5584 59.0652 30.5722 58.9563 30.4817C58.6211 30.2033 58.2823 29.9232 57.9383 29.6426C57.4949 29.2809 57.0691 28.9282 56.6631 28.5795C56.5558 28.4873 56.5445 28.3267 56.638 28.2208ZM12.9182 29.1416C13.0173 29.0409 13.1804 29.0385 13.2826 29.1362C14.0023 29.8251 14.8141 30.4985 15.6418 31.1099C15.7557 31.1941 15.7789 31.3534 15.6936 31.4658C15.6083 31.5782 15.4468 31.601 15.3329 31.5169C14.49 30.8943 13.6611 30.207 12.9237 29.5011C12.8215 29.4033 12.8191 29.2424 12.9182 29.1416ZM69.0163 29.9052C69.1493 29.9551 69.2161 30.102 69.1655 30.2332C68.8765 30.982 68.5728 31.679 68.272 32.2726C68.1508 32.5118 68.0364 32.743 67.929 32.9602C67.8188 33.183 67.7159 33.391 67.6204 33.5777C67.5563 33.7031 67.4013 33.7534 67.2742 33.6901C67.1472 33.6269 67.0961 33.474 67.1603 33.3487C67.2589 33.1558 67.3571 32.9572 67.4634 32.742C67.5685 32.5294 67.6815 32.3006 67.811 32.0452C68.1023 31.4704 68.3993 30.7895 68.6838 30.0523C68.7344 29.9211 68.8833 29.8552 69.0163 29.9052ZM60.9575 31.8114C61.0483 31.7033 61.2108 31.6883 61.3204 31.7779C62.0108 32.3426 62.6957 32.887 63.3899 33.4014C63.5037 33.4857 63.5266 33.6451 63.4411 33.7574C63.3557 33.8696 63.1941 33.8922 63.0803 33.8079C62.377 33.2867 61.6852 32.7367 60.9914 32.1694C60.8819 32.0798 60.8667 31.9195 60.9575 31.8114ZM17.8771 32.8821C17.9465 32.7595 18.1035 32.7157 18.2278 32.7842C18.7226 33.0571 19.187 33.2822 19.6012 33.4487L19.6298 33.4602L19.6547 33.478C20.011 33.7315 20.3841 33.9625 20.771 34.1751C20.8954 34.2434 20.94 34.3982 20.8708 34.5209C20.8015 34.6436 20.6446 34.6876 20.5202 34.6193C20.1266 34.403 19.7448 34.1673 19.3782 33.9081C18.9473 33.7331 18.4735 33.5022 17.9763 33.228C17.852 33.1595 17.8076 33.0047 17.8771 32.8821ZM65.2049 34.9546C65.2795 34.835 65.4383 34.7978 65.5594 34.8714C66.3014 35.3221 67.0677 35.7303 67.8734 36.0852C68.0034 36.1424 68.0617 36.2928 68.0037 36.421C67.9457 36.5492 67.7933 36.6067 67.6633 36.5495C67.0086 36.2611 66.3806 35.9391 65.7718 35.5895C65.7984 35.6944 65.7546 35.8085 65.6562 35.868C65.2854 36.0918 64.8419 36.3047 64.2958 36.5241C63.8838 36.6897 63.4682 36.8676 63.0485 37.0527C62.9186 37.1101 62.7662 37.0526 62.7081 36.9245C62.65 36.7963 62.7082 36.6459 62.8381 36.5886C63.261 36.402 63.6823 36.2217 64.1013 36.0533C64.6311 35.8404 65.0476 35.6393 65.3872 35.4343C65.4093 35.4209 65.4327 35.4113 65.4566 35.4051C65.4006 35.3718 65.3448 35.3382 65.2892 35.3044C65.168 35.2307 65.1303 35.0741 65.2049 34.9546ZM22.8685 35.3999C22.9175 35.2681 23.0656 35.2004 23.1992 35.2488C24.0327 35.5505 24.892 35.8115 25.7561 36.0634C25.8926 36.1031 25.9706 36.2445 25.9302 36.3792C25.8899 36.5138 25.7466 36.5907 25.6101 36.551C24.7434 36.2984 23.8712 36.0336 23.0217 35.7261C22.888 35.6778 22.8195 35.5317 22.8685 35.3999ZM28.0286 36.9926C28.0716 36.8587 28.2164 36.7846 28.3521 36.827C28.7893 36.9635 29.221 37.106 29.6433 37.2587C30.1263 37.4334 30.61 37.598 31.0944 37.7528C31.2298 37.7961 31.304 37.9395 31.2601 38.073C31.2162 38.2066 31.0709 38.2798 30.9355 38.2365C30.445 38.0797 29.9551 37.9131 29.4659 37.7361C29.0527 37.5867 28.6287 37.4466 28.1965 37.3117C28.0609 37.2693 27.9857 37.1264 28.0286 36.9926ZM70.0179 37.1333C70.0554 36.9979 70.1972 36.9181 70.3345 36.9552C70.7474 37.0665 71.172 37.1645 71.6098 37.2478C72.0382 37.3294 72.469 37.4239 72.9018 37.5287C73.04 37.5621 73.1246 37.6998 73.0907 37.8361C73.0567 37.9725 72.9172 38.0559 72.779 38.0225C72.3533 37.9194 71.9309 37.8268 71.5122 37.747C71.0614 37.6612 70.624 37.5604 70.1985 37.4456C70.0612 37.4086 69.9804 37.2688 70.0179 37.1333ZM60.6929 37.837C60.7515 37.965 60.6938 38.1155 60.564 38.1733C59.7307 38.5444 58.883 38.9046 58.0236 39.2146C57.8899 39.2628 57.7419 39.195 57.6931 39.0632C57.6442 38.9313 57.7129 38.7853 57.8466 38.7371C58.6887 38.4333 59.5232 38.0789 60.352 37.7099C60.4817 37.6521 60.6343 37.709 60.6929 37.837ZM75.1171 38.4009C75.1591 38.2668 75.3035 38.1917 75.4394 38.2332C76.2034 38.4664 76.9723 38.7147 77.7417 38.9632L77.9385 39.0267C78.0737 39.0704 78.1475 39.2139 78.1033 39.3474C78.059 39.4808 77.9134 39.5536 77.7782 39.5099L77.5819 39.4466C76.8118 39.1978 76.0468 38.9508 75.2871 38.7189C75.1511 38.6774 75.075 38.5351 75.1171 38.4009ZM33.7368 38.7649C33.7705 38.6286 33.91 38.545 34.0483 38.5782C35.0472 38.8187 36.0496 39.0222 37.0558 39.1925C37.1961 39.2163 37.2903 39.3477 37.2662 39.4861C37.2421 39.6245 37.1089 39.7174 36.9686 39.6937C35.9512 39.5214 34.9371 39.3155 33.9261 39.0722C33.7878 39.0389 33.7031 38.9013 33.7368 38.7649ZM126.44 38.9442C126.484 39.0778 126.41 39.2212 126.275 39.2645C125.748 39.4332 125.216 39.5981 124.68 39.7588C124.543 39.7997 124.399 39.7238 124.358 39.5895C124.317 39.4551 124.394 39.3132 124.53 39.2724C125.063 39.1125 125.592 38.9487 126.116 38.7809C126.251 38.7376 126.396 38.8107 126.44 38.9442ZM55.5636 39.6682C55.5905 39.806 55.4991 39.9393 55.3594 39.966C54.9019 40.0531 54.4408 40.1164 53.9763 40.1503C53.4603 40.188 52.9455 40.2228 52.4319 40.2543C52.2898 40.263 52.1675 40.1565 52.1587 40.0164C52.1498 39.8762 52.2578 39.7556 52.3999 39.7469C52.9114 39.7155 53.4241 39.6808 53.9382 39.6432C54.3807 39.6109 54.8218 39.5505 55.2617 39.4667C55.4014 39.4401 55.5366 39.5303 55.5636 39.6682ZM39.816 39.8351C39.8312 39.6955 39.9583 39.5946 40.0998 39.6096C41.1174 39.7176 42.1391 39.7962 43.1654 39.8492C43.3076 39.8565 43.4168 39.9761 43.4093 40.1163C43.4019 40.2565 43.2807 40.3643 43.1385 40.3569C42.1035 40.3035 41.0723 40.2242 40.0446 40.1151C39.9031 40.1001 39.8007 39.9747 39.816 39.8351ZM80.1092 39.9798C80.1505 39.8454 80.2944 39.7695 80.4306 39.8103C81.2711 40.0618 82.1093 40.2939 82.9429 40.4887C83.0814 40.521 83.1671 40.658 83.1343 40.7946C83.1015 40.9313 82.9626 41.0158 82.8241 40.9834C81.9769 40.7855 81.1278 40.5503 80.281 40.2968C80.1448 40.2561 80.0679 40.1141 80.1092 39.9798ZM49.5872 40.1383C49.5918 40.2786 49.4802 40.396 49.338 40.4006C48.3007 40.4337 47.2678 40.4492 46.2388 40.4434C46.0965 40.4426 45.9818 40.3282 45.9826 40.1878C45.9834 40.0474 46.0994 39.9342 46.2418 39.935C47.2635 39.9407 48.2899 39.9253 49.3213 39.8924C49.4636 39.8878 49.5826 39.9979 49.5872 40.1383ZM121.643 40.3482C121.679 40.484 121.597 40.623 121.46 40.6587C120.389 40.9366 119.304 41.1971 118.208 41.4384C118.069 41.469 117.932 41.3828 117.901 41.2457C117.87 41.1087 117.957 40.9728 118.096 40.9422C119.186 40.7023 120.264 40.4433 121.328 40.167C121.466 40.1313 121.607 40.2124 121.643 40.3482ZM85.2045 41.1719C85.2218 41.0325 85.3503 40.9333 85.4915 40.9503C85.9226 41.0021 86.3512 41.0384 86.777 41.0567L86.8069 41.058L86.8358 41.066C87.3658 41.2137 87.9004 41.3517 88.4394 41.4802C88.5778 41.5132 88.6628 41.6505 88.6294 41.787C88.596 41.9235 88.4567 42.0074 88.3184 41.9744C87.7829 41.8468 87.2515 41.7098 86.7245 41.5633C86.2941 41.544 85.8621 41.507 85.4292 41.455C85.2879 41.438 85.1873 41.3112 85.2045 41.1719ZM115.136 41.8001C115.162 41.9382 115.069 42.0706 114.929 42.0959C113.835 42.2937 112.733 42.4713 111.626 42.6268C111.485 42.6465 111.354 42.5499 111.334 42.4109C111.314 42.2719 111.412 42.1432 111.553 42.1234C112.653 41.9689 113.749 41.7924 114.836 41.5958C114.976 41.5705 115.111 41.662 115.136 41.8001ZM91.3937 42.3427C91.4173 42.2043 91.5502 42.1109 91.6906 42.1341C92.7749 42.3138 93.8724 42.4591 94.9802 42.572C95.1218 42.5864 95.2247 42.7113 95.2101 42.8509C95.1955 42.9906 95.0689 43.0921 94.9273 43.0777C93.8091 42.9638 92.7007 42.8171 91.6052 42.6355C91.4648 42.6123 91.3701 42.4812 91.3937 42.3427ZM108.534 42.7461C108.548 42.8858 108.445 43.0104 108.303 43.0243C107.192 43.1338 106.078 43.2197 104.965 43.2801C104.823 43.2878 104.702 43.1804 104.694 43.0402C104.686 42.9 104.795 42.7801 104.937 42.7724C106.042 42.7124 107.148 42.6272 108.252 42.5184C108.393 42.5044 108.52 42.6064 108.534 42.7461ZM98.0232 43.0555C98.0296 42.9153 98.1501 42.8068 98.2923 42.8131C99.394 42.8625 100.502 42.8825 101.615 42.8749C101.757 42.874 101.873 42.987 101.874 43.1274C101.875 43.2678 101.761 43.3824 101.618 43.3833C100.497 43.391 99.38 43.3708 98.2689 43.321C98.1267 43.3147 98.0167 43.1958 98.0232 43.0555Z" fill="#1EBCEF"/>
<path d="M119.72 46.4562L121.999 42.3401C121.999 42.3401 135.007 37.3345 135.181 37.1812L141.708 31.4514L133.129 33.0867L119.453 38.9293L119.72 46.4562Z" fill="#F8AB57"/>
<path d="M115.448 32.0592L141.711 31.4502L119.453 38.9292L115.448 32.0592Z" fill="#FED586"/>
<path d="M122 42.3402L126.216 49.6663L141.711 31.4503L122 42.3402Z" fill="#FED586"/>
<path d="M18.5069 15.2518C16.8785 14.303 15.1844 13.727 13.4245 13.5237V28.6195H10.2172V13.5237C8.44088 13.727 6.73854 14.303 5.11022 15.2518L4 12.7104C5.15134 11.9988 6.38492 11.4651 7.70073 11.1093C9.03299 10.7536 10.3982 10.5757 11.7962 10.5757C13.1943 10.5757 14.5594 10.7536 15.8917 11.1093C17.2239 11.4651 18.4657 11.9988 19.6171 12.7104L18.5069 15.2518Z" fill="#1C1C1D"/>
<path d="M21.6999 15.0485H24.7838V28.6195H21.6999V15.0485ZM23.2542 12.8121C22.695 12.8121 22.2262 12.6342 21.8479 12.2784C21.4696 11.9056 21.2805 11.4482 21.2805 10.906C21.2805 10.3639 21.4696 9.9149 21.8479 9.5591C22.2262 9.18637 22.695 9 23.2542 9C23.8134 9 24.2822 9.1779 24.6605 9.53369C25.0388 9.87254 25.2279 10.3046 25.2279 10.8298C25.2279 11.3889 25.0388 11.8633 24.6605 12.253C24.2986 12.6257 23.8299 12.8121 23.2542 12.8121Z" fill="#1C1C1D"/>
<path d="M45.9536 14.896C47.6148 14.896 48.9306 15.3958 49.901 16.3954C50.8714 17.3781 51.3566 18.8606 51.3566 20.8428V28.6195H48.2727V21.2495C48.2727 20.0635 48.0178 19.174 47.5079 18.581C46.998 17.9711 46.2661 17.6661 45.3121 17.6661C44.2759 17.6661 43.4453 18.0219 42.8203 18.7335C42.1953 19.4281 41.8828 20.4277 41.8828 21.7323V28.6195H38.7988V21.2495C38.7988 20.0635 38.5439 19.174 38.034 18.581C37.5241 17.9711 36.7922 17.6661 35.8382 17.6661C34.7856 17.6661 33.9468 18.0134 33.3217 18.7081C32.7132 19.4027 32.4089 20.4108 32.4089 21.7323V28.6195H29.325V15.0485H32.2609V16.7766C32.7543 16.1667 33.3711 15.7008 34.1112 15.3789C34.8514 15.057 35.6738 14.896 36.5784 14.896C37.5652 14.896 38.437 15.0908 39.1936 15.4805C39.9666 15.8533 40.5752 16.4124 41.0193 17.1578C41.562 16.4462 42.2611 15.8956 43.1164 15.5059C43.9716 15.0993 44.9174 14.896 45.9536 14.896Z" fill="#1C1C1D"/>
<path d="M62.178 26.1035C63.609 26.1035 64.8014 25.6122 65.7554 24.6295L67.3837 26.5864C66.808 27.3149 66.0679 27.8655 65.1633 28.2383C64.2586 28.611 63.2389 28.7974 62.104 28.7974C60.6566 28.7974 59.3819 28.5009 58.2799 27.9079C57.1779 27.3149 56.3226 26.4932 55.7141 25.4427C55.1219 24.3754 54.8259 23.1724 54.8259 21.834C54.8259 20.5125 55.1137 19.3265 55.6894 18.276C56.2815 17.2087 57.0874 16.3785 58.1072 15.7855C59.1434 15.1925 60.3112 14.896 61.6106 14.896C62.8441 14.896 63.9626 15.1756 64.9659 15.7347C65.9856 16.2768 66.7916 17.0646 67.3837 18.0981C67.9758 19.1147 68.2719 20.3091 68.2719 21.6815L58.1812 23.7146C58.4937 24.494 58.9954 25.0869 59.6862 25.4936C60.377 25.9002 61.2076 26.1035 62.178 26.1035ZM61.6106 17.4374C60.4757 17.4374 59.5546 17.8186 58.8473 18.581C58.1565 19.3434 57.8111 20.3684 57.8111 21.6561V21.6815L65.2619 20.2075C65.0481 19.3773 64.6123 18.7081 63.9544 18.1998C63.3129 17.6915 62.5316 17.4374 61.6106 17.4374Z" fill="#1C1C1D"/>
<path d="M84.0146 15.2518C82.3863 14.303 80.6922 13.727 78.9323 13.5237V28.6195H75.725V13.5237C73.9486 13.727 72.2463 14.303 70.618 15.2518L69.5078 12.7104C70.6591 11.9988 71.8927 11.4651 73.2085 11.1093C74.5408 10.7536 75.9059 10.5757 77.304 10.5757C78.702 10.5757 80.0672 10.7536 81.3995 11.1093C82.7317 11.4651 83.9735 11.9988 85.1249 12.7104L84.0146 15.2518Z" fill="#1C1C1D"/>
<path d="M90.1436 17.0308C91.0318 15.6076 92.5943 14.896 94.8312 14.896V17.9202C94.568 17.8694 94.3295 17.844 94.1157 17.844C92.915 17.844 91.9775 18.2083 91.3032 18.9368C90.6288 19.6484 90.2916 20.6819 90.2916 22.0373V28.6195H87.2077V15.0485H90.1436V17.0308Z" fill="#1C1C1D"/>
<path d="M110.699 15.0485V28.6195H107.763V26.8659C107.253 27.5097 106.62 27.9926 105.863 28.3145C105.123 28.6364 104.301 28.7974 103.396 28.7974C102.113 28.7974 100.962 28.5093 99.942 27.9333C98.9387 27.3572 98.1492 26.544 97.5736 25.4936C97.0143 24.4431 96.7347 23.2233 96.7347 21.834C96.7347 20.4447 97.0143 19.2333 97.5736 18.1998C98.1492 17.1494 98.9387 16.3361 99.942 15.7601C100.962 15.184 102.113 14.896 103.396 14.896C104.251 14.896 105.033 15.0485 105.74 15.3535C106.464 15.6584 107.089 16.1074 107.615 16.7004V15.0485H110.699ZM103.741 26.0781C104.876 26.0781 105.814 25.6884 106.554 24.909C107.294 24.1297 107.664 23.1047 107.664 21.834C107.664 20.5633 107.294 19.5383 106.554 18.7589C105.814 17.9795 104.876 17.5899 103.741 17.5899C102.607 17.5899 101.669 17.9795 100.929 18.7589C100.205 19.5383 99.8434 20.5633 99.8434 21.834C99.8434 23.1047 100.205 24.1297 100.929 24.909C101.669 25.6884 102.607 26.0781 103.741 26.0781Z" fill="#1C1C1D"/>
<path d="M121.272 28.7974C119.907 28.7974 118.681 28.5009 117.596 27.9079C116.51 27.3149 115.663 26.4932 115.055 25.4427C114.446 24.3754 114.142 23.1724 114.142 21.834C114.142 20.4955 114.446 19.3011 115.055 18.2506C115.663 17.2002 116.502 16.3785 117.571 15.7855C118.657 15.1925 119.89 14.896 121.272 14.896C122.571 14.896 123.706 15.1671 124.676 15.7092C125.663 16.2514 126.403 17.0308 126.897 18.0473L124.528 19.4705C124.15 18.8436 123.673 18.3777 123.097 18.0727C122.538 17.7508 121.921 17.5899 121.247 17.5899C120.096 17.5899 119.142 17.9795 118.385 18.7589C117.629 19.5213 117.25 20.5463 117.25 21.834C117.25 23.1216 117.62 24.1551 118.361 24.9345C119.117 25.6969 120.079 26.0781 121.247 26.0781C121.921 26.0781 122.538 25.9256 123.097 25.6206C123.673 25.2987 124.15 24.8243 124.528 24.1975L126.897 25.6206C126.387 26.6372 125.639 27.425 124.652 27.9841C123.681 28.5263 122.555 28.7974 121.272 28.7974Z" fill="#1C1C1D"/>
<path d="M135.314 22.7997L133.02 25.0361V28.6195H129.936V9.76241H133.02V21.1478L139.41 15.0485H143.11L137.609 20.7412L143.628 28.6195H139.878L135.314 22.7997Z" fill="#1C1C1D"/>
<path d="M151.826 26.1035C153.257 26.1035 154.45 25.6122 155.404 24.6295L157.032 26.5864C156.456 27.3149 155.716 27.8655 154.812 28.2383C153.907 28.611 152.887 28.7974 151.752 28.7974C150.305 28.7974 149.03 28.5009 147.928 27.9079C146.826 27.3149 145.971 26.4932 145.362 25.4427C144.77 24.3754 144.474 23.1724 144.474 21.834C144.474 20.5125 144.762 19.3265 145.338 18.276C145.93 17.2087 146.736 16.3785 147.756 15.7855C148.792 15.1925 149.959 14.896 151.259 14.896C152.492 14.896 153.611 15.1756 154.614 15.7347C155.634 16.2768 156.44 17.0646 157.032 18.0981C157.624 19.1147 157.92 20.3091 157.92 21.6815L147.83 23.7146C148.142 24.494 148.644 25.0869 149.334 25.4936C150.025 25.9002 150.856 26.1035 151.826 26.1035ZM151.259 17.4374C150.124 17.4374 149.203 17.8186 148.496 18.581C147.805 19.3434 147.459 20.3684 147.459 21.6561V21.6815L154.91 20.2075C154.696 19.3773 154.261 18.7081 153.603 18.1998C152.961 17.6915 152.18 17.4374 151.259 17.4374Z" fill="#1C1C1D"/>
<path d="M164.312 17.0308C165.201 15.6076 166.763 14.896 169 14.896V17.9202C168.737 17.8694 168.498 17.844 168.285 17.844C167.084 17.844 166.146 18.2083 165.472 18.9368C164.798 19.6484 164.46 20.6819 164.46 22.0373V28.6195H161.377V15.0485H164.312V17.0308Z" fill="#1C1C1D"/>
</svg>
